<?xml version="1.0" encoding="UTF-8" standalone="no"?><svg xmlns="http://www.w3.org/2000/svg" xmlns:xlink= "http://www.w3.org/1999/xlink" width="1911.9813271949602" height="1242.7878626767242" aria-label="A chart." style="overflow: hidden;"><defs id="_ABSTRACT_RENDERER_ID_57"><filter id="_ABSTRACT_RENDERER_ID_58"><feGaussianBlur in="SourceAlpha" stdDeviation="2"></feGaussianBlur><feOffset dx="1" dy="1"></feOffset><feComponentTransfer><feFuncA type="linear" slope="0.1"></feFuncA></feComponentTransfer><feMerge><feMergeNode></feMergeNode><feMergeNode in="SourceGraphic"></feMergeNode></feMerge></filter></defs><rect x="0" y="0" width="1911.9813271949602" height="1242.7878626767242" stroke="none" stroke-width="0" fill="#ffffff"></rect><g><text text-anchor="start" x="365" y="205.3" font-family="Arial" font-size="18" font-weight="bold" stroke="none" stroke-width="0" fill="#000000">Senior Software Engineer, Tech Lead</text><rect x="365" y="190" width="1182" height="18" stroke="none" stroke-width="0" fill-opacity="0" fill="#ffffff"></rect></g><g><path d="M956,467.4L956,237A384,384,0,0,1,1336.0914336822782,566.3511021030585L1108.0365734729112,599.1404408412234A153.60000000000002,153.60000000000002,0,0,0,956,467.4" stroke="#ffffff" stroke-width="1" fill="#3366cc"></path><text text-anchor="start" x="1154.6291853199757" y="368.6411315938042" font-family="Arial" font-size="18" stroke="none" stroke-width="0" fill="#ffffff">22.7%</text></g><g><path d="M1108.0365734729112,599.1404408412234L1336.0914336822782,566.3511021030585A384,384,0,0,1,1115.5193649927244,970.2986862161351L1019.8077459970898,760.719474486454A153.60000000000002,153.60000000000002,0,0,0,1108.0365734729112,599.1404408412234" stroke="#ffffff" stroke-width="1" fill="#dc3912"></path><text text-anchor="start" x="1228.2793035718078" y="789.899801521234" font-family="Arial" font-size="18" stroke="none" stroke-width="0" fill="#ffffff">20.5%</text></g><g><path d="M934.1404408412234,468.9634265270887L901.3511021030585,240.90856631772186A384,384,0,0,1,956,237L956,467.4A153.60000000000002,153.60000000000002,0,0,0,934.1404408412234,468.9634265270887" stroke="#ffffff" stroke-width="1" fill="#b82e2e"></path><text text-anchor="start" x="910.1728634274343" y="273.18035917406036" font-family="Arial" font-size="18" stroke="none" stroke-width="0" fill="#ffffff">2.3%</text></g><g><path d="M855.413391266004,504.916865379186L704.5334781650103,330.7921634479651A384,384,0,0,1,901.3511021030585,240.90856631772186L934.1404408412234,468.9634265270887A153.60000000000002,153.60000000000002,0,0,0,855.413391266004,504.916865379186" stroke="#ffffff" stroke-width="1" fill="#66aa00"></path><text text-anchor="start" x="790.5228478935159" y="309.84431827470445" font-family="Arial" font-size="18" stroke="none" stroke-width="0" fill="#ffffff">9.1%</text></g><g><path d="M808.6218792528132,577.7258792691564L587.5546981320331,512.814698172891A384,384,0,0,1,704.5334781650103,330.7921634479651L855.413391266004,504.916865379186A153.60000000000002,153.60000000000002,0,0,0,808.6218792528132,577.7258792691564" stroke="#ffffff" stroke-width="1" fill="#dd4477"></path><text text-anchor="start" x="646.216729059308" y="441.388930418804" font-family="Arial" font-size="18" stroke="none" stroke-width="0" fill="#ffffff">9.1%</text></g><g><path d="M816.280525513546,684.8077459970898L606.701313783865,780.5193649927245A384,384,0,0,1,587.5546981320331,512.814698172891L808.6218792528132,577.7258792691564A153.60000000000002,153.60000000000002,0,0,0,816.280525513546,684.8077459970898" stroke="#ffffff" stroke-width="1" fill="#0099c6"></path><text text-anchor="start" x="591.516231159497" y="651.5803583487733" font-family="Arial" font-size="18" stroke="none" stroke-width="0" fill="#ffffff">11.4%</text></g><g><path d="M855.4133912660042,737.0831346208141L704.5334781650106,911.2078365520352A384,384,0,0,1,606.7013137838649,780.5193649927244L816.280525513546,684.8077459970898A153.60000000000002,153.60000000000002,0,0,0,855.4133912660042,737.0831346208141" stroke="#ffffff" stroke-width="1" fill="#990099"></path><text text-anchor="start" x="659.9856106342191" y="833.5474884601533" font-family="Arial" font-size="18" stroke="none" stroke-width="0" fill="#ffffff">6.8%</text></g><g><path d="M934.1404408412234,773.0365734729113L901.3511021030585,1001.0914336822782A384,384,0,0,1,704.5334781650106,911.2078365520352L855.4133912660042,737.0831346208141A153.60000000000002,153.60000000000002,0,0,0,934.1404408412234,773.0365734729113" stroke="#ffffff" stroke-width="1" fill="#109618"></path><text text-anchor="start" x="790.522847893516" y="944.7556817252956" font-family="Arial" font-size="18" stroke="none" stroke-width="0" fill="#ffffff">9.1%</text></g><g><path d="M1019.8077459970898,760.719474486454L1115.5193649927244,970.2986862161351A384,384,0,0,1,901.3511021030585,1001.0914336822782L934.1404408412234,773.0365734729113A153.60000000000002,153.60000000000002,0,0,0,1019.8077459970898,760.719474486454" stroke="#ffffff" stroke-width="1" fill="#ff9900"></path><text text-anchor="start" x="985.8339268648203" y="977.3801509480985" font-family="Arial" font-size="18" stroke="none" stroke-width="0" fill="#ffffff">9.1%</text></g><g><g><g><text text-anchor="end" x="1547" y="394.7375772558715" font-family="Arial" font-size="18" stroke="none" stroke-width="0" fill="#222222">Tech Lead</text></g><g><text text-anchor="end" x="1547" y="423.86242274412854" font-family="Arial" font-size="18" stroke="none" stroke-width="0" fill="#9e9e9e">22.7%</text></g></g><g><path d="M1145.5,403.5L1358.5,403.5L1358.5,403.5L1547.5,403.5" stroke="#636363" stroke-width="1" stroke-opacity="0.7" fill-opacity="1" fill="none"></path><circle cx="1145.5" cy="403.5" r="2" stroke="none" stroke-width="0" fill-opacity="0.7" fill="#636363"></circle></g><g><g><text text-anchor="end" x="1547" y="750.7375772558714" font-family="Arial" font-size="18" stroke="none" stroke-width="0" fill="#222222">Product</text></g><g><text text-anchor="end" x="1547" y="779.8624227441285" font-family="Arial" font-size="18" stroke="none" stroke-width="0" fill="#9e9e9e">20.5%</text></g></g><g><path d="M1209.5,759.5L1358.5,759.5L1358.5,759.5L1547.5,759.5" stroke="#636363" stroke-width="1" stroke-opacity="0.7" fill-opacity="1" fill="none"></path><circle cx="1209.5" cy="759.5" r="2" stroke="none" stroke-width="0" fill-opacity="0.7" fill="#636363"></circle></g><g><g><text text-anchor="end" x="1547" y="897.7375772558714" font-family="Arial" font-size="18" stroke="none" stroke-width="0" fill="#222222">People Management</text></g><g><text text-anchor="end" x="1547" y="926.8624227441285" font-family="Arial" font-size="18" stroke="none" stroke-width="0" fill="#9e9e9e">9.1%</text></g></g><g><path d="M997.5,906.5L1358.5,906.5L1358.5,906.5L1547.5,906.5" stroke="#636363" stroke-width="1" stroke-opacity="0.7" fill-opacity="1" fill="none"></path><circle cx="997.5" cy="906.5" r="2" stroke="none" stroke-width="0" fill-opacity="0.7" fill="#636363"></circle></g><g><g><text text-anchor="start" x="365" y="874.7375772558714" font-family="Arial" font-size="18" stroke="none" stroke-width="0" fill="#222222">Recruiting</text></g><g><text text-anchor="start" x="365" y="903.8624227441285" font-family="Arial" font-size="18" stroke="none" stroke-width="0" fill="#9e9e9e">9.1%</text></g></g><g><path d="M836.5,883.5L554.5,883.5L554.5,883.5L365.5,883.5" stroke="#636363" stroke-width="1" stroke-opacity="0.7" fill-opacity="1" fill="none"></path><circle cx="836.5" cy="883.5" r="2" stroke="none" stroke-width="0" fill-opacity="0.7" fill="#636363"></circle></g><g><g><text text-anchor="start" x="365" y="785.7375772558714" font-family="Arial" font-size="18" stroke="none" stroke-width="0" fill="#222222">Mentoring</text></g><g><text text-anchor="start" x="365" y="814.8624227441285" font-family="Arial" font-size="18" stroke="none" stroke-width="0" fill="#9e9e9e">6.8%</text></g></g><g><path d="M725.5,794.5L554.5,794.5L554.5,794.5L365.5,794.5" stroke="#636363" stroke-width="1" stroke-opacity="0.7" fill-opacity="1" fill="none"></path><circle cx="725.5" cy="794.5" r="2" stroke="none" stroke-width="0" fill-opacity="0.7" fill="#636363"></circle></g><g><g><text text-anchor="start" x="365" y="633.7375772558714" font-family="Arial" font-size="18" stroke="none" stroke-width="0" fill="#222222">Architect/Advocate</text></g><g><text text-anchor="start" x="365" y="662.8624227441285" font-family="Arial" font-size="18" stroke="none" stroke-width="0" fill="#9e9e9e">11.4%</text></g></g><g><path d="M669.5,642.5L554.5,642.5L554.5,642.5L365.5,642.5" stroke="#636363" stroke-width="1" stroke-opacity="0.7" fill-opacity="1" fill="none"></path><circle cx="669.5" cy="642.5" r="2" stroke="none" stroke-width="0" fill-opacity="0.7" fill="#636363"></circle></g><g><g><text text-anchor="start" x="365" y="456.7375772558715" font-family="Arial" font-size="18" stroke="none" stroke-width="0" fill="#222222">Individual Contributor</text></g><g><text text-anchor="start" x="365" y="485.86242274412854" font-family="Arial" font-size="18" stroke="none" stroke-width="0" fill="#9e9e9e">9.1%</text></g></g><g><path d="M714.5,465.5L554.5,465.5L554.5,465.5L365.5,465.5" stroke="#636363" stroke-width="1" stroke-opacity="0.7" fill-opacity="1" fill="none"></path><circle cx="714.5" cy="465.5" r="2" stroke="none" stroke-width="0" fill-opacity="0.7" fill="#636363"></circle></g><g><g><text text-anchor="start" x="365" y="364.7375772558715" font-family="Arial" font-size="18" stroke="none" stroke-width="0" fill="#222222">BarRaiser</text></g><g><text text-anchor="start" x="365" y="393.86242274412854" font-family="Arial" font-size="18" stroke="none" stroke-width="0" fill="#9e9e9e">9.1%</text></g></g><g><path d="M827.5,363.5L554.5,363.5L554.5,373.5L365.5,373.5" stroke="#636363" stroke-width="1" stroke-opacity="0.7" fill-opacity="1" fill="none"></path><circle cx="827.5" cy="363.5" r="2" stroke="none" stroke-width="0" fill-opacity="0.7" fill="#636363"></circle></g><g><g><text text-anchor="start" x="365" y="311.7375772558715" font-family="Arial" font-size="18" stroke="none" stroke-width="0" fill="#222222">Miscs</text></g><g><text text-anchor="start" x="365" y="340.86242274412854" font-family="Arial" font-size="18" stroke="none" stroke-width="0" fill="#9e9e9e">2.3%</text></g></g><g><path d="M935.5,334.5L554.5,334.5L554.5,320.5L365.5,320.5" stroke="#636363" stroke-width="1" stroke-opacity="0.7" fill-opacity="1" fill="none"></path><circle cx="935.5" cy="334.5" r="2" stroke="none" stroke-width="0" fill-opacity="0.7" fill="#636363"></circle></g></g><g></g></svg>